<?xml version="1.0" encoding="UTF-8"?>
<svg version="1.1" xmlns="http://www.w3.org/2000/svg" width="1080" height="1080">
<path d="M0 0 C356.4 0 712.8 0 1080 0 C1080 356.4 1080 712.8 1080 1080 C723.6 1080 367.2 1080 0 1080 C0 723.6 0 367.2 0 0 Z " fill="#5C2672" transform="translate(0,0)"/>
<path d="M0 0 C7.59 0 15.18 0 23 0 C23 7.26 23 14.52 23 22 C19.04 22.33 15.08 22.66 11 23 C10.67 26.63 10.34 30.26 10 34 C6.37 34.33 2.74 34.66 -1 35 C-1.33 38.63 -1.66 42.26 -2 46 C-5.63 46.33 -9.26 46.66 -13 47 C-13.33 50.96 -13.66 54.92 -14 59 C-5.75 59 2.5 59 11 59 C11 55.04 11 51.08 11 47 C30.8 47 50.6 47 71 47 C71 43.04 71 39.08 71 35 C78.92 35 86.84 35 95 35 C95 38.96 95 42.92 95 47 C98.96 47 102.92 47 107 47 C107 54.92 107 62.84 107 71 C103.04 71 99.08 71 95 71 C95 74.96 95 78.92 95 83 C91.04 83 87.08 83 83 83 C83 90.92 83 98.84 83 107 C86.96 107 90.92 107 95 107 C95 103.04 95 99.08 95 95 C106.88 95 118.76 95 131 95 C131 102.92 131 110.84 131 119 C127.04 119 123.08 119 119 119 C119 122.96 119 126.92 119 131 C103.16 131 87.32 131 71 131 C71 134.96 71 138.92 71 143 C70.76852239 147.01778996 70.38170528 150.99209457 70 155 C74.29 155 78.58 155 83 155 C83 151.04 83 147.08 83 143 C94.88 143 106.76 143 119 143 C119 150.92 119 158.84 119 167 C122.96 167 126.92 167 131 167 C131 174.59 131 182.18 131 190 C111.2 190.33 91.4 190.66 71 191 C71 194.96 71 198.92 71 203 C63.08 203 55.16 203 47 203 C47 199.04 47 195.08 47 191 C43.04 191 39.08 191 35 191 C35 187.04 35 183.08 35 179 C27.08 179 19.16 179 11 179 C11 186.92 11 194.84 11 203 C14.96 203 18.92 203 23 203 C23 206.96 23 210.92 23 215 C19.04 215 15.08 215 11 215 C11 218.96 11 222.92 11 227 C7.04 227 3.08 227 -1 227 C-1 223.04 -1 219.08 -1 215 C-4.96 215 -8.92 215 -13 215 C-13 211.04 -13 207.08 -13 203 C-16.96 203 -20.92 203 -25 203 C-25 206.96 -25 210.92 -25 215 C-28.96 215 -32.92 215 -37 215 C-37 218.96 -37 222.92 -37 227 C-40.96 227 -44.92 227 -49 227 C-49 230.96 -49 234.92 -49 239 C-52.96 239 -56.92 239 -61 239 C-61 242.96 -61 246.92 -61 251 C-64.96 251 -68.92 251 -73 251 C-73 247.04 -73 243.08 -73 239 C-88.51 239 -104.02 239 -120 239 C-120 235.04 -120 231.08 -120 227 C-116.37 227 -112.74 227 -109 227 C-109 219.08 -109 211.16 -109 203 C-112.96 203 -116.92 203 -121 203 C-121 199.04 -121 195.08 -121 191 C-124.96 191 -128.92 191 -133 191 C-133 198.92 -133 206.84 -133 215 C-136.96 215 -140.92 215 -145 215 C-145 218.96 -145 222.92 -145 227 C-148.96 227 -152.92 227 -157 227 C-157 219.08 -157 211.16 -157 203 C-160.96 203 -164.92 203 -169 203 C-169 195.08 -169 187.16 -169 179 C-165.04 179 -161.08 179 -157 179 C-157 175.04 -157 171.08 -157 167 C-160.96 167 -164.92 167 -169 167 C-169 159.08 -169 151.16 -169 143 C-172.96 143 -176.92 143 -181 143 C-181 139.04 -181 135.08 -181 131 C-184.96 131 -188.92 131 -193 131 C-193 127.04 -193 123.08 -193 119 C-196.96 119 -200.92 119 -205 119 C-205 115.04 -205 111.08 -205 107 C-201.04 107 -197.08 107 -193 107 C-193 95.12 -193 83.24 -193 71 C-189.04 71 -185.08 71 -181 71 C-181 67.04 -181 63.08 -181 59 C-173.08 59 -165.16 59 -157 59 C-157 66.92 -157 74.84 -157 83 C-153.04 83 -149.08 83 -145 83 C-145 79.04 -145 75.08 -145 71 C-141.04 71 -137.08 71 -133 71 C-133 67.04 -133 63.08 -133 59 C-129.04 59 -125.08 59 -121 59 C-121 62.96 -121 66.92 -121 71 C-117.04 71 -113.08 71 -109 71 C-109 67.04 -109 63.08 -109 59 C-105.04 59 -101.08 59 -97 59 C-97.020625 57.246875 -97.04125 55.49375 -97.0625 53.6875 C-97.06958442 47.72950672 -96.62349621 41.923214 -96 36 C-88.74 36 -81.48 36 -74 36 C-73.67 39.63 -73.34 43.26 -73 47 C-65.08 47 -57.16 47 -49 47 C-48.67 43.37 -48.34 39.74 -48 36 C-44.37 35.67 -40.74 35.34 -37 35 C-36.67 31.37 -36.34 27.74 -36 24 C-24.615 23.505 -24.615 23.505 -13 23 C-12.67 19.37 -12.34 15.74 -12 12 C-8.37 11.67 -4.74 11.34 -1 11 C-0.67 7.37 -0.34 3.74 0 0 Z " fill="#4A494A" transform="translate(559,391)"/>
<path d="M0 0 C7.92 0 15.84 0 24 0 C24 7.92 24 15.84 24 24 C27.96 24 31.92 24 36 24 C36 20.04 36 16.08 36 12 C39.96 12 43.92 12 48 12 C48 8.04 48 4.08 48 0 C51.96 0 55.92 0 60 0 C60 3.96 60 7.92 60 12 C63.96 12 67.92 12 72 12 C72 8.04 72 4.08 72 0 C75.96 0 79.92 0 84 0 C84 7.92 84 15.84 84 24 C80.04 24 76.08 24 72 24 C72 27.96 72 31.92 72 36 C68.04 36 64.08 36 60 36 C60 39.96 60 43.92 60 48 C63.96 48 67.92 48 72 48 C72 51.96 72 55.92 72 60 C79.92 60 87.84 60 96 60 C96 71.88 96 83.76 96 96 C99.96 96 103.92 96 108 96 C108 99.96 108 103.92 108 108 C111.96 108 115.92 108 120 108 C120 111.96 120 115.92 120 120 C123.96 120 127.92 120 132 120 C132 127.92 132 135.84 132 144 C128.04 144 124.08 144 120 144 C120 147.96 120 151.92 120 156 C112.08 156 104.16 156 96 156 C96 159.96 96 163.92 96 168 C88.08 168 80.16 168 72 168 C72 160.08 72 152.16 72 144 C68.04 144 64.08 144 60 144 C60 140.04 60 136.08 60 132 C56.04 132 52.08 132 48 132 C48 139.92 48 147.84 48 156 C44.04 156 40.08 156 36 156 C36 159.96 36 163.92 36 168 C32.04 168 28.08 168 24 168 C24 160.08 24 152.16 24 144 C20.04 144 16.08 144 12 144 C12 136.08 12 128.16 12 120 C15.96 120 19.92 120 24 120 C24 116.04 24 112.08 24 108 C20.04 108 16.08 108 12 108 C12 100.08 12 92.16 12 84 C8.04 84 4.08 84 0 84 C0 80.04 0 76.08 0 72 C-3.96 72 -7.92 72 -12 72 C-12 68.04 -12 64.08 -12 60 C-15.96 60 -19.92 60 -24 60 C-24 56.04 -24 52.08 -24 48 C-20.04 48 -16.08 48 -12 48 C-12 36.12 -12 24.24 -12 12 C-8.04 12 -4.08 12 0 12 C0 8.04 0 4.08 0 0 Z " fill="#E91E63" transform="translate(378,450)"/>
<path d="M0 0 C3.96 0 7.92 0 12 0 C12 3.96 12 7.92 12 12 C15.96 12 19.92 12 24 12 C24 15.96 24 19.92 24 24 C27.96 24 31.92 24 36 24 C36 27.96 36 31.92 36 36 C32.04 36 28.08 36 24 36 C24 39.96 24 43.92 24 48 C16.08 48 8.16 48 0 48 C0 51.96 0 55.92 0 60 C-3.96 60 -7.92 60 -12 60 C-12 63.96 -12 67.92 -12 72 C-15.96 72 -19.92 72 -24 72 C-24 75.96 -24 79.92 -24 84 C-35.88 84 -47.76 84 -60 84 C-60 80.04 -60 76.08 -60 72 C-67.92 72 -75.84 72 -84 72 C-84 68.04 -84 64.08 -84 60 C-95.88 60 -107.76 60 -120 60 C-120 56.04 -120 52.08 -120 48 C-116.04 48 -112.08 48 -108 48 C-108 44.04 -108 40.08 -108 36 C-88.2 36 -68.4 36 -48 36 C-48 39.96 -48 43.92 -48 48 C-44.04 48 -40.08 48 -36 48 C-36 44.04 -36 40.08 -36 36 C-32.04 36 -28.08 36 -24 36 C-24 32.04 -24 28.08 -24 24 C-20.04 24 -16.08 24 -12 24 C-12 20.04 -12 16.08 -12 12 C-8.04 12 -4.08 12 0 12 C0 8.04 0 4.08 0 0 Z " fill="#9E9E9E" transform="translate(534,594)"/>
<path d="M0 0 C7.59 0 15.18 0 23 0 C23 7.26 23 14.52 23 22 C19.04 22.33 15.08 22.66 11 23 C10.67 26.63 10.34 30.26 10 34 C6.37 34.33 2.74 34.66 -1 35 C-1.33 38.63 -1.66 42.26 -2 46 C-5.63 46.33 -9.26 46.66 -13 47 C-13 54.92 -13 62.84 -13 71 C-16.96 71 -20.92 71 -25 71 C-25 67.04 -25 63.08 -25 59 C-32.92 59 -40.84 59 -49 59 C-49 62.96 -49 66.92 -49 71 C-60.88 71 -72.76 71 -85 71 C-85 74.96 -85 78.92 -85 83 C-88.96 83 -92.92 83 -97 83 C-97.02497151 78.07446652 -97.04298678 73.148971 -97.05493164 68.22338867 C-97.05991846 66.55248369 -97.06671031 64.88158298 -97.07543945 63.21069336 C-97.12194273 54.07143204 -97.04155178 45.09512541 -96 36 C-88.74 36 -81.48 36 -74 36 C-73.67 39.63 -73.34 43.26 -73 47 C-65.08 47 -57.16 47 -49 47 C-48.67 43.37 -48.34 39.74 -48 36 C-44.37 35.67 -40.74 35.34 -37 35 C-36.67 31.37 -36.34 27.74 -36 24 C-24.615 23.505 -24.615 23.505 -13 23 C-12.67 19.37 -12.34 15.74 -12 12 C-8.37 11.67 -4.74 11.34 -1 11 C-0.67 7.37 -0.34 3.74 0 0 Z " fill="#302E2F" transform="translate(559,391)"/>
<path d="M0 0 C7.92 0 15.84 0 24 0 C24 7.92 24 15.84 24 24 C27.96 24 31.92 24 36 24 C36 20.04 36 16.08 36 12 C39.96 12 43.92 12 48 12 C48 19.92 48 27.84 48 36 C40.08 36 32.16 36 24 36 C24 39.96 24 43.92 24 48 C20.04 48 16.08 48 12 48 C12 51.96 12 55.92 12 60 C19.92 60 27.84 60 36 60 C36 63.96 36 67.92 36 72 C28.08 72 20.16 72 12 72 C12 75.96 12 79.92 12 84 C8.04 84 4.08 84 0 84 C0 80.04 0 76.08 0 72 C-3.96 72 -7.92 72 -12 72 C-12 68.04 -12 64.08 -12 60 C-15.96 60 -19.92 60 -24 60 C-24 56.04 -24 52.08 -24 48 C-20.04 48 -16.08 48 -12 48 C-12 36.12 -12 24.24 -12 12 C-8.04 12 -4.08 12 0 12 C0 8.04 0 4.08 0 0 Z " fill="#FFEB3B" transform="translate(378,450)"/>
<path d="M0 0 C7.92 0 15.84 0 24 0 C24 3.96 24 7.92 24 12 C27.96 12 31.92 12 36 12 C36 15.96 36 19.92 36 24 C39.96 24 43.92 24 48 24 C48 31.92 48 39.84 48 48 C44.04 48 40.08 48 36 48 C36 51.96 36 55.92 36 60 C47.88 60 59.76 60 72 60 C72 63.96 72 67.92 72 72 C64.08 72 56.16 72 48 72 C48 75.96 48 79.92 48 84 C40.08 84 32.16 84 24 84 C24 72.12 24 60.24 24 48 C16.08 48 8.16 48 0 48 C0 44.04 0 40.08 0 36 C3.96 36 7.92 36 12 36 C12 32.04 12 28.08 12 24 C8.04 24 4.08 24 0 24 C0 16.08 0 8.16 0 0 Z " fill="#9E9E9E" transform="translate(570,570)"/>
<path d="M0 0 C7.92 0 15.84 0 24 0 C24 3.96 24 7.92 24 12 C27.96 12 31.92 12 36 12 C36 15.96 36 19.92 36 24 C32.04 24 28.08 24 24 24 C24 27.96 24 31.92 24 36 C27.96 36 31.92 36 36 36 C36 51.84 36 67.68 36 84 C32.04 84 28.08 84 24 84 C24 87.96 24 91.92 24 96 C20.04 96 16.08 96 12 96 C12 88.08 12 80.16 12 72 C8.04 72 4.08 72 0 72 C0 64.08 0 56.16 0 48 C3.96 48 7.92 48 12 48 C12 44.04 12 40.08 12 36 C8.04 36 4.08 36 0 36 C0 24.12 0 12.24 0 0 Z " fill="#A39329" transform="translate(390,522)"/>
<path d="M0 0 C7.92 0 15.84 0 24 0 C24 11.88 24 23.76 24 36 C20.04 36 16.08 36 12 36 C12 39.63 12 43.26 12 47 C4.08 47 -3.84 47 -12 47 C-12 43.37 -12 39.74 -12 36 C-15.96 36 -19.92 36 -24 36 C-24 39.96 -24 43.92 -24 48 C-27.96 48 -31.92 48 -36 48 C-36 51.63 -36 55.26 -36 59 C-43.92 59 -51.84 59 -60 59 C-60 55.37 -60 51.74 -60 48 C-56.04 48 -52.08 48 -48 48 C-48 44.04 -48 40.08 -48 36 C-44.04 36 -40.08 36 -36 36 C-36 32.04 -36 28.08 -36 24 C-28.08 24 -20.16 24 -12 24 C-12 20.04 -12 16.08 -12 12 C-8.04 12 -4.08 12 0 12 C0 8.04 0 4.08 0 0 Z " fill="#3B3B3B" transform="translate(570,618)"/>
<path d="M0 0 C3.96 0 7.92 0 12 0 C12 3.96 12 7.92 12 12 C15.96 12 19.92 12 24 12 C24 8.04 24 4.08 24 0 C27.96 0 31.92 0 36 0 C36 7.92 36 15.84 36 24 C32.04 24 28.08 24 24 24 C24 27.96 24 31.92 24 36 C20.04 36 16.08 36 12 36 C12 43.92 12 51.84 12 60 C8.04 60 4.08 60 0 60 C0 63.96 0 67.92 0 72 C-3.96 72 -7.92 72 -12 72 C-12 68.04 -12 64.08 -12 60 C-19.92 60 -27.84 60 -36 60 C-36 56.04 -36 52.08 -36 48 C-32.04 48 -28.08 48 -24 48 C-24 44.04 -24 40.08 -24 36 C-16.08 36 -8.16 36 0 36 C0 24.12 0 12.24 0 0 Z " fill="#C7B530" transform="translate(426,450)"/>
<path d="M0 0 C3.96 0 7.92 0 12 0 C12 3.96 12 7.92 12 12 C15.96 12 19.92 12 24 12 C24 15.96 24 19.92 24 24 C27.96 24 31.92 24 36 24 C36 31.92 36 39.84 36 48 C32.04 48 28.08 48 24 48 C24 51.96 24 55.92 24 60 C16.08 60 8.16 60 0 60 C0 52.08 0 44.16 0 36 C-7.92 36 -15.84 36 -24 36 C-24 32.04 -24 28.08 -24 24 C-20.04 24 -16.08 24 -12 24 C-12 20.04 -12 16.08 -12 12 C-8.04 12 -4.08 12 0 12 C0 8.04 0 4.08 0 0 Z " fill="#C7B530" transform="translate(474,546)"/>
<path d="M0 0 C7.92 0 15.84 0 24 0 C24 7.92 24 15.84 24 24 C20.04 24 16.08 24 12 24 C12 27.96 12 31.92 12 36 C8.04 36 4.08 36 0 36 C0 39.96 0 43.92 0 48 C-3.96 48 -7.92 48 -12 48 C-12 44.04 -12 40.08 -12 36 C-27.51 36 -43.02 36 -59 36 C-59 32.04 -59 28.08 -59 24 C-47.45 24 -35.9 24 -24 24 C-24 20.04 -24 16.08 -24 12 C-16.08 12 -8.16 12 0 12 C0 8.04 0 4.08 0 0 Z " fill="#3B3B3B" transform="translate(498,594)"/>
<path d="M0 0 C11.88 0 23.76 0 36 0 C36 7.92 36 15.84 36 24 C24.12 24 12.24 24 0 24 C0 27.96 0 31.92 0 36 C-7.92 36 -15.84 36 -24 36 C-24 32.04 -24 28.08 -24 24 C-31.92 24 -39.84 24 -48 24 C-48 20.04 -48 16.08 -48 12 C-32.16 12 -16.32 12 0 12 C0 8.04 0 4.08 0 0 Z " fill="#302E2F" transform="translate(606,474)"/>
<path d="M0 0 C19.8 0 39.6 0 60 0 C60 7.92 60 15.84 60 24 C36.24 24 12.48 24 -12 24 C-12 20.04 -12 16.08 -12 12 C-8.04 12 -4.08 12 0 12 C0 8.04 0 4.08 0 0 Z " fill="#E91E63" transform="translate(426,630)"/>
<path d="M0 0 C7.92 0 15.84 0 24 0 C24 3.96 24 7.92 24 12 C31.92 12 39.84 12 48 12 C48 15.96 48 19.92 48 24 C44.04 24 40.08 24 36 24 C36 27.96 36 31.92 36 36 C32.04 36 28.08 36 24 36 C24 32.04 24 28.08 24 24 C16.08 24 8.16 24 0 24 C0 27.96 0 31.92 0 36 C-3.96 36 -7.92 36 -12 36 C-12 39.96 -12 43.92 -12 48 C-15.96 48 -19.92 48 -24 48 C-24 40.08 -24 32.16 -24 24 C-20.04 24 -16.08 24 -12 24 C-12 20.04 -12 16.08 -12 12 C-8.04 12 -4.08 12 0 12 C0 8.04 0 4.08 0 0 Z " fill="#302E2F" transform="translate(510,486)"/>
<path d="M0 0 C7.92 0 15.84 0 24 0 C24 7.92 24 15.84 24 24 C27.96 24 31.92 24 36 24 C36 20.04 36 16.08 36 12 C39.96 12 43.92 12 48 12 C48 19.92 48 27.84 48 36 C28.2 36 8.4 36 -12 36 C-12 28.08 -12 20.16 -12 12 C-8.04 12 -4.08 12 0 12 C0 8.04 0 4.08 0 0 Z " fill="#C7B530" transform="translate(378,450)"/>
<path d="M0 0 C3.96 0 7.92 0 12 0 C12 3.96 12 7.92 12 12 C15.96 12 19.92 12 24 12 C24 15.96 24 19.92 24 24 C20.04 24 16.08 24 12 24 C12 31.92 12 39.84 12 48 C4.08 48 -3.84 48 -12 48 C-12 44.04 -12 40.08 -12 36 C-15.96 36 -19.92 36 -24 36 C-24 32.04 -24 28.08 -24 24 C-20.04 24 -16.08 24 -12 24 C-12 20.04 -12 16.08 -12 12 C-8.04 12 -4.08 12 0 12 C0 8.04 0 4.08 0 0 Z " fill="#9E9E9E" transform="translate(438,498)"/>
<path d="M0 0 C7.92 0 15.84 0 24 0 C24 3.96 24 7.92 24 12 C27.96 12 31.92 12 36 12 C36 15.96 36 19.92 36 24 C32.04 24 28.08 24 24 24 C24 31.92 24 39.84 24 48 C20.04 48 16.08 48 12 48 C12 44.04 12 40.08 12 36 C8.04 36 4.08 36 0 36 C0 24.12 0 12.24 0 0 Z " fill="#C7B530" transform="translate(390,522)"/>
<path d="M0 0 C11.88 0 23.76 0 36 0 C36 11.88 36 23.76 36 36 C28.08 36 20.16 36 12 36 C12 28.08 12 20.16 12 12 C8.04 12 4.08 12 0 12 C0 8.04 0 4.08 0 0 Z " fill="#9E9E9E" transform="translate(438,582)"/>
<path d="M0 0 C27.39 0 54.78 0 83 0 C83 3.96 83 7.92 83 12 C55.61 12 28.22 12 0 12 C0 8.04 0 4.08 0 0 Z " fill="#302E2F" transform="translate(546,534)"/>
<path d="M0 0 C7.92 0 15.84 0 24 0 C24 3.96 24 7.92 24 12 C27.96 12 31.92 12 36 12 C36 15.96 36 19.92 36 24 C32.04 24 28.08 24 24 24 C24 27.96 24 31.92 24 36 C20.04 36 16.08 36 12 36 C12 32.04 12 28.08 12 24 C8.04 24 4.08 24 0 24 C0 16.08 0 8.16 0 0 Z " fill="#5D2773" transform="translate(546,582)"/>
<path d="M0 0 C3.96 0 7.92 0 12 0 C12 11.88 12 23.76 12 36 C0.12 36 -11.76 36 -24 36 C-24 32.04 -24 28.08 -24 24 C-20.04 24 -16.08 24 -12 24 C-12 20.04 -12 16.08 -12 12 C-8.04 12 -4.08 12 0 12 C0 8.04 0 4.08 0 0 Z " fill="#FFEB3B" transform="translate(474,546)"/>
<path d="M0 0 C7.92 0 15.84 0 24 0 C24 3.96 24 7.92 24 12 C20.04 12 16.08 12 12 12 C12 15.96 12 19.92 12 24 C8.04 24 4.08 24 0 24 C0 27.63 0 31.26 0 35 C-7.92 35 -15.84 35 -24 35 C-24 31.37 -24 27.74 -24 24 C-20.04 24 -16.08 24 -12 24 C-12 20.04 -12 16.08 -12 12 C-8.04 12 -4.08 12 0 12 C0 8.04 0 4.08 0 0 Z " fill="#3B3B3B" transform="translate(534,642)"/>
<path d="M0 0 C7.92 0 15.84 0 24 0 C24 7.59 24 15.18 24 23 C8.16 23 -7.68 23 -24 23 C-24 19.37 -24 15.74 -24 12 C-16.08 12 -8.16 12 0 12 C0 8.04 0 4.08 0 0 Z " fill="#302E2F" transform="translate(666,558)"/>
<path d="M0 0 C11.88 0 23.76 0 36 0 C36 3.96 36 7.92 36 12 C32.04 12 28.08 12 24 12 C24 15.96 24 19.92 24 24 C16.08 24 8.16 24 0 24 C0 16.08 0 8.16 0 0 Z " fill="#FFEB3B" transform="translate(534,618)"/>
<path d="M0 0 C3.96 0 7.92 0 12 0 C12 7.92 12 15.84 12 24 C4.08 24 -3.84 24 -12 24 C-12 27.96 -12 31.92 -12 36 C-15.96 36 -19.92 36 -24 36 C-24 28.08 -24 20.16 -24 12 C-16.08 12 -8.16 12 0 12 C0 8.04 0 4.08 0 0 Z " fill="#C7B530" transform="translate(414,558)"/>
<path d="M0 0 C3.96 0 7.92 0 12 0 C12 11.88 12 23.76 12 36 C4.08 36 -3.84 36 -12 36 C-12 28.08 -12 20.16 -12 12 C-8.04 12 -4.08 12 0 12 C0 8.04 0 4.08 0 0 Z " fill="#FFEB3B" transform="translate(462,510)"/>
<path d="M0 0 C11.88 0 23.76 0 36 0 C36 3.96 36 7.92 36 12 C28.08 12 20.16 12 12 12 C12 15.96 12 19.92 12 24 C8.04 24 4.08 24 0 24 C0 16.08 0 8.16 0 0 Z " fill="#FFEB3B" transform="translate(606,630)"/>
<path d="M0 0 C3.96 0 7.92 0 12 0 C12 3.96 12 7.92 12 12 C15.96 12 19.92 12 24 12 C24 15.96 24 19.92 24 24 C12.12 24 0.24 24 -12 24 C-12 20.04 -12 16.08 -12 12 C-8.04 12 -4.08 12 0 12 C0 8.04 0 4.08 0 0 Z " fill="#FFEB3B" transform="translate(426,630)"/>
<path d="M0 0 C7.92 0 15.84 0 24 0 C24 7.92 24 15.84 24 24 C16.08 24 8.16 24 0 24 C0 16.08 0 8.16 0 0 Z " fill="#E91E63" transform="translate(498,594)"/>
<path d="M0 0 C11.88 0 23.76 0 36 0 C36 3.96 36 7.92 36 12 C28.08 12 20.16 12 12 12 C12 15.96 12 19.92 12 24 C8.04 24 4.08 24 0 24 C0 16.08 0 8.16 0 0 Z " fill="#E91E63" transform="translate(666,438)"/>
<path d="M0 0 C11.88 0 23.76 0 36 0 C36 3.96 36 7.92 36 12 C28.08 12 20.16 12 12 12 C12 15.96 12 19.92 12 24 C8.04 24 4.08 24 0 24 C0 16.08 0 8.16 0 0 Z " fill="#A61447" transform="translate(582,390)"/>
<path d="M0 0 C3.96 0 7.92 0 12 0 C12 3.96 12 7.92 12 12 C15.96 12 19.92 12 24 12 C24 15.96 24 19.92 24 24 C20.04 24 16.08 24 12 24 C12 27.63 12 31.26 12 35 C8.37 35 4.74 35 1 35 C0.16371908 27.06520856 -0.12598752 19.28750877 -0.0625 11.3125 C-0.05798828 10.21744141 -0.05347656 9.12238281 -0.04882812 7.99414062 C-0.03719172 5.32940278 -0.01926285 2.66469362 0 0 Z " fill="#3B3B3B" transform="translate(426,582)"/>
<path d="M0 0 C11.88 0 23.76 0 36 0 C36 3.96 36 7.92 36 12 C24.12 12 12.24 12 0 12 C0 8.04 0 4.08 0 0 Z " fill="#3B3B3B" transform="translate(450,642)"/>
<path d="M0 0 C7.92 0 15.84 0 24 0 C24 3.96 24 7.92 24 12 C20.04 12 16.08 12 12 12 C12 15.96 12 19.92 12 24 C8.04 24 4.08 24 0 24 C0 16.08 0 8.16 0 0 Z " fill="#FFEB3B" transform="translate(618,570)"/>
<path d="M0 0 C7.92 0 15.84 0 24 0 C24 3.96 24 7.92 24 12 C20.04 12 16.08 12 12 12 C12 15.96 12 19.92 12 24 C8.04 24 4.08 24 0 24 C0 16.08 0 8.16 0 0 Z " fill="#A61447" transform="translate(690,558)"/>
<path d="M0 0 C7.92 0 15.84 0 24 0 C24 3.96 24 7.92 24 12 C20.04 12 16.08 12 12 12 C12 15.96 12 19.92 12 24 C8.04 24 4.08 24 0 24 C0 16.08 0 8.16 0 0 Z " fill="#9E9E9E" transform="translate(450,546)"/>
<path d="M0 0 C11.88 0 23.76 0 36 0 C36 3.96 36 7.92 36 12 C24.12 12 12.24 12 0 12 C0 8.04 0 4.08 0 0 Z " fill="#E91E63" transform="translate(414,546)"/>
<path d="M0 0 C7.92 0 15.84 0 24 0 C24 3.96 24 7.92 24 12 C20.04 12 16.08 12 12 12 C12 15.96 12 19.92 12 24 C8.04 24 4.08 24 0 24 C0 16.08 0 8.16 0 0 Z " fill="#E91E63" transform="translate(678,534)"/>
<path d="M0 0 C3.96 0 7.92 0 12 0 C12 7.92 12 15.84 12 24 C4.08 24 -3.84 24 -12 24 C-12 20.04 -12 16.08 -12 12 C-8.04 12 -4.08 12 0 12 C0 8.04 0 4.08 0 0 Z " fill="#E91E63" transform="translate(402,486)"/>
<path d="M0 0 C7.92 0 15.84 0 24 0 C24 3.96 24 7.92 24 12 C20.04 12 16.08 12 12 12 C12 15.96 12 19.92 12 24 C8.04 24 4.08 24 0 24 C0 16.08 0 8.16 0 0 Z " fill="#E91E63" transform="translate(690,486)"/>
<path d="M0 0 C7.92 0 15.84 0 24 0 C24 3.96 24 7.92 24 12 C20.04 12 16.08 12 12 12 C12 15.96 12 19.92 12 24 C8.04 24 4.08 24 0 24 C0 16.08 0 8.16 0 0 Z " fill="#A61447" transform="translate(642,474)"/>
<path d="M0 0 C3.96 0 7.92 0 12 0 C12 7.92 12 15.84 12 24 C4.08 24 -3.84 24 -12 24 C-12 20.04 -12 16.08 -12 12 C-8.04 12 -4.08 12 0 12 C0 8.04 0 4.08 0 0 Z " fill="#FFEB3B" transform="translate(414,462)"/>
<path d="M0 0 C3.96 0 7.92 0 12 0 C12 7.92 12 15.84 12 24 C8.04 24 4.08 24 0 24 C0 16.08 0 8.16 0 0 Z " fill="#E91E63" transform="translate(558,630)"/>
<path d="M0 0 C7.92 0 15.84 0 24 0 C24 3.96 24 7.92 24 12 C16.08 12 8.16 12 0 12 C0 8.04 0 4.08 0 0 Z " fill="#302E2F" transform="translate(522,546)"/>
<path d="M0 0 C7.92 0 15.84 0 24 0 C24 3.96 24 7.92 24 12 C16.08 12 8.16 12 0 12 C0 8.04 0 4.08 0 0 Z " fill="#3B3B3B" transform="translate(402,534)"/>
<path d="M0 0 C7.92 0 15.84 0 24 0 C24 3.96 24 7.92 24 12 C16.08 12 8.16 12 0 12 C0 8.04 0 4.08 0 0 Z " fill="#706E70" transform="translate(354,498)"/>
<path d="M0 0 C7.92 0 15.84 0 24 0 C24 3.96 24 7.92 24 12 C16.08 12 8.16 12 0 12 C0 8.04 0 4.08 0 0 Z " fill="#5D2773" transform="translate(582,474)"/>
<path d="M0 0 C7.92 0 15.84 0 24 0 C24 3.96 24 7.92 24 12 C16.08 12 8.16 12 0 12 C0 8.04 0 4.08 0 0 Z " fill="#9E9E9E" transform="translate(378,474)"/>
<path d="M0 0 C3.96 0 7.92 0 12 0 C12 7.92 12 15.84 12 24 C8.04 24 4.08 24 0 24 C0 16.08 0 8.16 0 0 Z " fill="#302E2F" transform="translate(426,450)"/>
<path d="M0 0 C3.96 0 7.92 0 12 0 C12 3.96 12 7.92 12 12 C8.04 12 4.08 12 0 12 C0 8.04 0 4.08 0 0 Z " fill="#E91E63" transform="translate(534,666)"/>
<path d="M0 0 C3.96 0 7.92 0 12 0 C12 3.96 12 7.92 12 12 C8.04 12 4.08 12 0 12 C0 8.04 0 4.08 0 0 Z " fill="#9E9E9E" transform="translate(582,654)"/>
<path d="M0 0 C3.96 0 7.92 0 12 0 C12 3.96 12 7.92 12 12 C8.04 12 4.08 12 0 12 C0 8.04 0 4.08 0 0 Z " fill="#E91E63" transform="translate(546,654)"/>
<path d="M0 0 C3.96 0 7.92 0 12 0 C12 3.96 12 7.92 12 12 C8.04 12 4.08 12 0 12 C0 8.04 0 4.08 0 0 Z " fill="#FFEB3B" transform="translate(450,654)"/>
<path d="M0 0 C3.96 0 7.92 0 12 0 C12 3.96 12 7.92 12 12 C8.04 12 4.08 12 0 12 C0 8.04 0 4.08 0 0 Z " fill="#3B3B3B" transform="translate(486,630)"/>
<path d="M0 0 C3.96 0 7.92 0 12 0 C12 3.96 12 7.92 12 12 C8.04 12 4.08 12 0 12 C0 8.04 0 4.08 0 0 Z " fill="#E91E63" transform="translate(570,618)"/>
<path d="M0 0 C3.96 0 7.92 0 12 0 C12 3.96 12 7.92 12 12 C8.04 12 4.08 12 0 12 C0 8.04 0 4.08 0 0 Z " fill="#3B3B3B" transform="translate(498,618)"/>
<path d="M0 0 C3.96 0 7.92 0 12 0 C12 3.96 12 7.92 12 12 C8.04 12 4.08 12 0 12 C0 8.04 0 4.08 0 0 Z " fill="#E91E63" transform="translate(486,618)"/>
<path d="M0 0 C3.96 0 7.92 0 12 0 C12 3.96 12 7.92 12 12 C8.04 12 4.08 12 0 12 C0 8.04 0 4.08 0 0 Z " fill="#A39329" transform="translate(390,618)"/>
<path d="M0 0 C3.96 0 7.92 0 12 0 C12 3.96 12 7.92 12 12 C8.04 12 4.08 12 0 12 C0 8.04 0 4.08 0 0 Z " fill="#FFEB3B" transform="translate(570,606)"/>
<path d="M0 0 C3.96 0 7.92 0 12 0 C12 3.96 12 7.92 12 12 C8.04 12 4.08 12 0 12 C0 8.04 0 4.08 0 0 Z " fill="#3B3B3B" transform="translate(558,606)"/>
<path d="M0 0 C3.96 0 7.92 0 12 0 C12 3.96 12 7.92 12 12 C8.04 12 4.08 12 0 12 C0 8.04 0 4.08 0 0 Z " fill="#3B3B3B" transform="translate(510,606)"/>
<path d="M0 0 C3.96 0 7.92 0 12 0 C12 3.96 12 7.92 12 12 C8.04 12 4.08 12 0 12 C0 8.04 0 4.08 0 0 Z " fill="#E91E63" transform="translate(498,606)"/>
<path d="M0 0 C3.96 0 7.92 0 12 0 C12 3.96 12 7.92 12 12 C8.04 12 4.08 12 0 12 C0 8.04 0 4.08 0 0 Z " fill="#C7B530" transform="translate(462,606)"/>
<path d="M0 0 C3.96 0 7.92 0 12 0 C12 3.96 12 7.92 12 12 C8.04 12 4.08 12 0 12 C0 8.04 0 4.08 0 0 Z " fill="#E91E63" transform="translate(438,606)"/>
<path d="M0 0 C3.96 0 7.92 0 12 0 C12 3.96 12 7.92 12 12 C8.04 12 4.08 12 0 12 C0 8.04 0 4.08 0 0 Z " fill="#3B3B3B" transform="translate(570,594)"/>
<path d="M0 0 C3.96 0 7.92 0 12 0 C12 3.96 12 7.92 12 12 C8.04 12 4.08 12 0 12 C0 8.04 0 4.08 0 0 Z " fill="#E91E63" transform="translate(558,594)"/>
<path d="M0 0 C3.96 0 7.92 0 12 0 C12 3.96 12 7.92 12 12 C8.04 12 4.08 12 0 12 C0 8.04 0 4.08 0 0 Z " fill="#3B3B3B" transform="translate(546,594)"/>
<path d="M0 0 C3.96 0 7.92 0 12 0 C12 3.96 12 7.92 12 12 C8.04 12 4.08 12 0 12 C0 8.04 0 4.08 0 0 Z " fill="#3B3B3B" transform="translate(522,594)"/>
<path d="M0 0 C3.96 0 7.92 0 12 0 C12 3.96 12 7.92 12 12 C8.04 12 4.08 12 0 12 C0 8.04 0 4.08 0 0 Z " fill="#3B3B3B" transform="translate(498,594)"/>
<path d="M0 0 C3.96 0 7.92 0 12 0 C12 3.96 12 7.92 12 12 C8.04 12 4.08 12 0 12 C0 8.04 0 4.08 0 0 Z " fill="#3B3B3B" transform="translate(606,582)"/>
<path d="M0 0 C3.96 0 7.92 0 12 0 C12 3.96 12 7.92 12 12 C8.04 12 4.08 12 0 12 C0 8.04 0 4.08 0 0 Z " fill="#FFEB3B" transform="translate(438,582)"/>
<path d="M0 0 C3.96 0 7.92 0 12 0 C12 3.96 12 7.92 12 12 C8.04 12 4.08 12 0 12 C0 8.04 0 4.08 0 0 Z " fill="#E91E63" transform="translate(606,570)"/>
<path d="M0 0 C3.96 0 7.92 0 12 0 C12 3.96 12 7.92 12 12 C8.04 12 4.08 12 0 12 C0 8.04 0 4.08 0 0 Z " fill="#3B3B3B" transform="translate(594,570)"/>
<path d="M0 0 C3.96 0 7.92 0 12 0 C12 3.96 12 7.92 12 12 C8.04 12 4.08 12 0 12 C0 8.04 0 4.08 0 0 Z " fill="#FFEB3B" transform="translate(570,570)"/>
<path d="M0 0 C3.96 0 7.92 0 12 0 C12 3.96 12 7.92 12 12 C8.04 12 4.08 12 0 12 C0 8.04 0 4.08 0 0 Z " fill="#5D2773" transform="translate(522,558)"/>
<path d="M0 0 C3.96 0 7.92 0 12 0 C12 3.96 12 7.92 12 12 C8.04 12 4.08 12 0 12 C0 8.04 0 4.08 0 0 Z " fill="#3B3B3B" transform="translate(426,558)"/>
<path d="M0 0 C3.96 0 7.92 0 12 0 C12 3.96 12 7.92 12 12 C8.04 12 4.08 12 0 12 C0 8.04 0 4.08 0 0 Z " fill="#A39329" transform="translate(402,558)"/>
<path d="M0 0 C3.96 0 7.92 0 12 0 C12 3.96 12 7.92 12 12 C8.04 12 4.08 12 0 12 C0 8.04 0 4.08 0 0 Z " fill="#5D2773" transform="translate(546,546)"/>
<path d="M0 0 C3.96 0 7.92 0 12 0 C12 3.96 12 7.92 12 12 C8.04 12 4.08 12 0 12 C0 8.04 0 4.08 0 0 Z " fill="#FFEB3B" transform="translate(438,546)"/>
<path d="M0 0 C3.96 0 7.92 0 12 0 C12 3.96 12 7.92 12 12 C8.04 12 4.08 12 0 12 C0 8.04 0 4.08 0 0 Z " fill="#302E2F" transform="translate(474,534)"/>
<path d="M0 0 C3.96 0 7.92 0 12 0 C12 3.96 12 7.92 12 12 C8.04 12 4.08 12 0 12 C0 8.04 0 4.08 0 0 Z " fill="#E91E63" transform="translate(402,522)"/>
<path d="M0 0 C3.96 0 7.92 0 12 0 C12 3.96 12 7.92 12 12 C8.04 12 4.08 12 0 12 C0 8.04 0 4.08 0 0 Z " fill="#E91E63" transform="translate(714,498)"/>
<path d="M0 0 C3.96 0 7.92 0 12 0 C12 3.96 12 7.92 12 12 C8.04 12 4.08 12 0 12 C0 8.04 0 4.08 0 0 Z " fill="#FFEB3B" transform="translate(414,498)"/>
<path d="M0 0 C3.96 0 7.92 0 12 0 C12 3.96 12 7.92 12 12 C8.04 12 4.08 12 0 12 C0 8.04 0 4.08 0 0 Z " fill="#706E70" transform="translate(390,498)"/>
<path d="M0 0 C3.96 0 7.92 0 12 0 C12 3.96 12 7.92 12 12 C8.04 12 4.08 12 0 12 C0 8.04 0 4.08 0 0 Z " fill="#FFEB3B" transform="translate(354,498)"/>
<path d="M0 0 C3.96 0 7.92 0 12 0 C12 3.96 12 7.92 12 12 C8.04 12 4.08 12 0 12 C0 8.04 0 4.08 0 0 Z " fill="#706E70" transform="translate(402,486)"/>
<path d="M0 0 C3.96 0 7.92 0 12 0 C12 3.96 12 7.92 12 12 C8.04 12 4.08 12 0 12 C0 8.04 0 4.08 0 0 Z " fill="#C7B530" transform="translate(366,474)"/>
<path d="M0 0 C3.96 0 7.92 0 12 0 C12 3.96 12 7.92 12 12 C8.04 12 4.08 12 0 12 C0 8.04 0 4.08 0 0 Z " fill="#FFEB3B" transform="translate(366,462)"/>
<path d="M0 0 C3.96 0 7.92 0 12 0 C12 3.96 12 7.92 12 12 C8.04 12 4.08 12 0 12 C0 8.04 0 4.08 0 0 Z " fill="#E91E63" transform="translate(702,450)"/>
<path d="M0 0 C3.96 0 7.92 0 12 0 C12 3.96 12 7.92 12 12 C8.04 12 4.08 12 0 12 C0 8.04 0 4.08 0 0 Z " fill="#FFEB3B" transform="translate(426,450)"/>
<path d="M0 0 C3.96 0 7.92 0 12 0 C12 3.96 12 7.92 12 12 C8.04 12 4.08 12 0 12 C0 8.04 0 4.08 0 0 Z " fill="#FFEB3B" transform="translate(378,450)"/>
<path d="M0 0 C3.96 0 7.92 0 12 0 C12 3.96 12 7.92 12 12 C8.04 12 4.08 12 0 12 C0 8.04 0 4.08 0 0 Z " fill="#C7B530" transform="translate(462,438)"/>
<path d="M0 0 C3.96 0 7.92 0 12 0 C12 3.96 12 7.92 12 12 C8.04 12 4.08 12 0 12 C0 8.04 0 4.08 0 0 Z " fill="#C7B530" transform="translate(402,438)"/>
<path d="M0 0 C3.96 0 7.92 0 12 0 C12 3.96 12 7.92 12 12 C8.04 12 4.08 12 0 12 C0 8.04 0 4.08 0 0 Z " fill="#A61447" transform="translate(618,402)"/>
<path d="M0 0 C3.96 0 7.92 0 12 0 C12 3.63 12 7.26 12 11 C8.04 11 4.08 11 0 11 C0 7.37 0 3.74 0 0 Z " fill="#302E2F" transform="translate(438,451)"/>
<path d="M0 0 C3.63 0 7.26 0 11 0 C11 3.63 11 7.26 11 11 C7.37 11 3.74 11 0 11 C0 7.37 0 3.74 0 0 Z " fill="#3B3B3B" transform="translate(546,666)"/>
<path d="M0 0 C3.63 0 7.26 0 11 0 C11 3.63 11 7.26 11 11 C7.37 11 3.74 11 0 11 C0 7.37 0 3.74 0 0 Z " fill="#302E2F" transform="translate(451,439)"/>
</svg>
